<?xml version="1.0" encoding="UTF-8"?>
<svg xmlns="http://www.w3.org/2000/svg" xmlns:xlink="http://www.w3.org/1999/xlink" width="466.5pt" height="305.999988pt" viewBox="0 0 466.5 305.999988" version="1.2">
<defs>
<clipPath id="clip1">
  <path d="M 23 60 L 445 60 L 445 305.835938 L 23 305.835938 Z M 23 60 "/>
</clipPath>
<clipPath id="clip2">
  <path d="M 22 65 L 445 65 L 445 305.835938 L 22 305.835938 Z M 22 65 "/>
</clipPath>
<clipPath id="clip3">
  <path d="M 170 3.082031 L 253 3.082031 L 253 77 L 170 77 Z M 170 3.082031 "/>
</clipPath>
</defs>
<g id="surface1">
<g clip-path="url(#clip1)" clip-rule="nonzero">
<path style=" stroke:none;fill-rule:evenodd;fill:rgb(100%,100%,100%);fill-opacity:1;" d="M 434.199219 332.667969 C 427.804688 414.347656 316.363281 426.078125 294.105469 347.371094 C 294.007812 347.074219 293.859375 346.429688 293.761719 346.132812 C 291.777344 338.410156 291.035156 330.09375 291.628906 321.976562 C 292.71875 305.292969 299.808594 288.660156 311.257812 276.433594 C 314.429688 272.96875 317.949219 269.898438 321.667969 267.128906 C 328.707031 288.363281 338.96875 307.371094 351.90625 323.164062 L 351.414062 323.757812 C 352.058594 324.105469 352.652344 324.453125 353.296875 324.796875 C 353.496094 325.046875 353.742188 325.34375 353.941406 325.640625 C 353.097656 327.867188 354.933594 329.996094 357.0625 330.390625 C 356.417969 331.925781 358.003906 332.570312 358.996094 332.816406 C 362.21875 333.558594 365.988281 333.707031 368.414062 331.925781 C 371.539062 329.054688 370.449219 323.410156 367.078125 321.28125 C 367.078125 321.234375 367.125 321.234375 367.125 321.183594 C 366.679688 321.132812 366.285156 320.984375 365.9375 320.6875 C 364.25 320.046875 362.269531 320.046875 360.582031 320.789062 C 349.332031 302.523438 338.027344 282.621094 331.730469 260.988281 C 334.359375 259.652344 337.136719 258.515625 339.910156 257.523438 C 340.011719 257.476562 340.210938 257.425781 340.257812 257.375 C 342.835938 256.484375 345.511719 255.742188 348.191406 255.148438 C 348.4375 255.097656 348.933594 255 349.179688 254.949219 C 353.941406 254.007812 358.949219 253.515625 363.90625 253.613281 C 364.101562 253.613281 364.796875 253.613281 365.042969 253.613281 C 366.730469 253.664062 368.464844 253.761719 370.152344 253.960938 C 370.152344 254.007812 370.101562 254.109375 370.050781 254.207031 C 370.199219 254.207031 370.347656 254.257812 370.449219 254.257812 C 370.449219 254.15625 370.496094 254.109375 370.496094 254.007812 C 371.835938 254.15625 373.175781 254.355469 374.511719 254.554688 L 375.453125 254.703125 C 392.457031 257.722656 408.519531 267.769531 418.980469 281.582031 C 423.390625 287.324219 426.910156 293.710938 429.539062 300.589844 L 429.933594 301.730469 C 433.453125 311.582031 434.890625 322.222656 434.199219 332.667969 Z M 312.449219 225.445312 C 286.871094 249.753906 258.464844 272.425781 236.800781 300.542969 L 232.738281 298.117188 L 233.132812 298.015625 C 231.792969 297.867188 230.507812 296.632812 229.515625 295.789062 C 231.695312 295.9375 232.339844 296.332031 233.628906 293.859375 C 238.140625 285.789062 242.007812 277.523438 246.914062 269.503906 C 250.878906 262.472656 254.894531 255.496094 258.859375 248.367188 C 260.941406 245.296875 264.460938 237.128906 258.664062 233.019531 C 273.832031 226.140625 291.28125 217.824219 307.492188 207.773438 C 308.78125 213.664062 310.863281 219.40625 312.746094 225.101562 Z M 225.449219 182.675781 C 223.269531 180.695312 220.890625 178.765625 219.796875 175.894531 C 223.167969 176.4375 226.492188 176.785156 230.160156 176.835938 C 230.355469 176.835938 230.554688 176.636719 230.554688 176.4375 C 230.65625 172.183594 230.605469 167.480469 230.257812 162.925781 C 232.09375 163.816406 233.53125 162.777344 235.164062 161.933594 C 236.902344 163.222656 238.683594 162.828125 240.765625 161.933594 C 240.765625 161.933594 249.292969 158.765625 249.292969 158.765625 C 251.175781 158.171875 252.019531 157.628906 252.464844 156.390625 C 252.714844 156.441406 253.210938 156.589844 253.457031 156.636719 C 255.492188 159.65625 285.035156 169.015625 287.664062 165.550781 C 290.390625 166.738281 293.710938 165.746094 296.585938 165.550781 C 298.867188 165.746094 301.144531 166.242188 303.425781 165.945312 C 303.871094 168.269531 304.320312 170.648438 304.765625 172.972656 C 298.667969 181.835938 297.773438 185.84375 299.511719 196.539062 C 299.90625 198.765625 300.601562 199.507812 303.328125 199.804688 C 287.167969 208.617188 270.90625 217.082031 254.945312 226.535156 C 257.226562 221.1875 259.457031 215.746094 261.585938 210.398438 C 262.332031 208.765625 263.371094 206.339844 263.421875 204.109375 C 264.066406 195.792969 237.992188 188.171875 227.78125 185.398438 C 227.628906 184.261719 226.292969 183.519531 225.449219 182.675781 Z M 308.53125 197.921875 C 308.632812 197.726562 309.128906 196.734375 309.226562 196.539062 C 309.472656 197.03125 310.019531 197.921875 310.316406 198.367188 C 309.671875 198.617188 308.136719 199.457031 307.492188 199.753906 Z M 217.816406 240.347656 C 217.519531 241.4375 217.269531 242.523438 217.070312 243.515625 C 211.023438 246.632812 205.027344 249.503906 198.976562 252.574219 L 199.175781 252.921875 C 195.753906 254.902344 192.039062 256.136719 188.667969 258.21875 C 186.039062 246.882812 184.058594 235.445312 182.519531 223.863281 C 183.90625 223.8125 185.296875 223.664062 186.683594 223.417969 C 188.070312 223.464844 189.410156 223.316406 190.5 222.921875 C 198.285156 228.664062 206.511719 233.960938 214.988281 238.714844 C 215.933594 239.355469 216.921875 239.554688 217.964844 239.652344 Z M 216.824219 326.132812 C 215.882812 326.035156 215.039062 327.023438 214.097656 327.371094 C 211.273438 328.808594 208.496094 330.292969 205.820312 331.828125 C 204.878906 326.382812 202.546875 321.332031 202.347656 315.6875 L 202.25 315.835938 C 201.902344 315.195312 201.207031 314.007812 200.8125 313.363281 C 201.457031 313.511719 202.746094 313.808594 203.390625 313.957031 L 203.339844 314.054688 C 204.183594 313.90625 205.371094 314.453125 206.164062 314.550781 C 209.089844 315.09375 212.066406 315.6875 215.039062 316.085938 C 214.296875 317.273438 214.296875 317.324219 215.734375 317.324219 C 214.941406 318.957031 214.742188 320.886719 214.792969 322.621094 C 214.792969 322.917969 214.941406 322.867188 215.089844 322.964844 C 215.386719 323.855469 216.03125 324.449219 217.070312 324.847656 Z M 191.046875 264.207031 L 190.796875 263.367188 L 191.144531 263.265625 C 191.097656 263.117188 190.898438 263.066406 190.75 263.117188 L 190.699219 263.019531 C 198.828125 259.554688 206.761719 255.691406 214.792969 251.980469 C 210.082031 265.542969 200.761719 277.226562 198.382812 291.632812 L 197.144531 291.730469 C 194.367188 282.421875 192.136719 272.917969 189.957031 263.710938 L 190.351562 263.5625 C 190.203125 263.910156 190.648438 264.304688 191.046875 264.207031 Z M 196.847656 331.28125 C 195.953125 331.578125 194.914062 331.679688 193.921875 331.578125 C 189.660156 330.738281 185.296875 330.09375 181.082031 329.402344 C 183.511719 306.285156 175.777344 282.769531 160.0625 265.789062 C 165.914062 260.496094 172.109375 254.902344 178.753906 248.960938 C 184.949219 278.957031 191.988281 308.609375 197.441406 331.085938 Z M 170.621094 322.175781 C 170.574219 324.003906 170.472656 325.886719 170.277344 327.71875 C 152.675781 324.996094 133.789062 322.125 114.804688 319.847656 L 115.648438 318.957031 C 116.6875 317.667969 114.902344 315.492188 113.863281 314.898438 C 111.878906 313.710938 109.648438 314.15625 107.46875 315.195312 L 106.722656 314.15625 C 110.789062 310.492188 114.855469 306.828125 118.917969 303.164062 C 123.628906 305.144531 128.386719 306.878906 133.097656 308.710938 L 132.898438 309.847656 C 133.9375 309.847656 135.03125 309.699219 136.019531 309.796875 C 147.71875 314.15625 160.0625 318.363281 170.574219 321.628906 Z M 169.433594 333.757812 C 168.738281 337.765625 167.648438 341.679688 166.308594 345.488281 C 151.539062 392.21875 87.390625 408.109375 54.078125 370.933594 C 16.703125 334.402344 34.945312 261.832031 87.292969 250.839844 C 90.265625 256.238281 92.792969 261.632812 95.519531 267.078125 C 96.808594 270.246094 99.140625 273.019531 99.683594 276.484375 C 100.03125 277.769531 100.378906 279.007812 100.675781 280.296875 C 100.726562 280.296875 100.777344 280.34375 100.824219 280.34375 C 100.824219 280.34375 100.824219 280.296875 100.824219 280.296875 L 101.964844 279.800781 C 104.296875 283.761719 107.21875 290.738281 109.898438 294.996094 C 113.316406 300.144531 113.167969 299.75 115.695312 300.046875 C 112.671875 303.015625 109.597656 306.085938 106.574219 309.054688 C 103.898438 311.628906 101.371094 314.945312 97.355469 315.6875 C 96.066406 315.789062 94.925781 316.234375 94.132812 317.125 C 93.933594 317.667969 93.6875 318.164062 93.390625 318.660156 C 92 323.855469 99.140625 327.867188 102.859375 323.511719 C 125.265625 326.925781 147.226562 329.5 169.582031 333.066406 Z M 121.496094 241.484375 C 130.46875 241.335938 141.324219 242.425781 153.171875 241.78125 C 153.867188 241.585938 154.710938 241.4375 155.253906 241.039062 C 158.429688 242.625 161.648438 244.308594 164.871094 245.792969 C 164.625 247.179688 166.160156 248.019531 166.65625 249.257812 C 162.691406 252.96875 158.625 256.632812 154.859375 260.59375 C 145.339844 251.980469 133.789062 245.792969 121.398438 242.671875 Z M 443.515625 315.835938 C 439.007812 278.859375 406.339844 246.039062 368.8125 244.109375 L 368.613281 242.871094 C 370.398438 242.179688 371.984375 240.742188 373.273438 238.613281 C 361.425781 237.425781 349.179688 238.8125 338.226562 242.820312 C 336.195312 243.613281 334.011719 244.40625 331.730469 244.109375 C 331.386719 243.464844 330.988281 242.773438 330.59375 242.128906 C 330.59375 242.128906 330.542969 242.128906 330.542969 242.128906 C 329.898438 241.882812 329.253906 241.585938 328.90625 240.890625 C 328.609375 240.296875 328.609375 239.554688 328.511719 238.910156 C 328.511719 238.8125 328.511719 238.714844 328.558594 238.613281 C 327.519531 236.832031 326.578125 235 324.347656 234.800781 L 325.089844 234.011719 C 325.386719 233.664062 325.238281 233.019531 324.691406 232.921875 C 321.71875 222.179688 318.050781 211.832031 315.226562 201.042969 L 314.332031 201.289062 C 314.234375 200.992188 313.488281 199.210938 313.339844 198.863281 L 314.925781 200.003906 L 314.730469 199.261719 C 328.808594 204.707031 342.488281 207.128906 355.675781 204.855469 L 355.675781 204.804688 C 357.210938 204.359375 358.699219 203.664062 359.890625 202.824219 C 360.632812 202.875 360.832031 202.429688 361.226562 201.191406 C 362.019531 198.617188 362.863281 196.089844 363.707031 193.566406 C 368.464844 178.121094 374.960938 163.273438 379.273438 147.925781 C 379.371094 147.828125 379.769531 147.480469 379.71875 147.429688 C 362.8125 137.578125 322.113281 140.550781 300.007812 143.867188 C 300.402344 149.808594 301.542969 155.648438 302.632812 161.292969 C 294.601562 155.597656 286.96875 148.917969 277.351562 146.09375 L 279.632812 145.648438 C 279.980469 145.597656 280.226562 144.855469 279.832031 144.707031 L 279.382812 144.558594 C 280.226562 138.125 272.988281 137.382812 268.925781 140.550781 C 268.03125 141.292969 267.039062 143.816406 268.675781 144.363281 L 268.625 145.597656 C 267.289062 145.796875 265.554688 146.539062 264.117188 147.28125 C 264.460938 145.300781 263.71875 142.628906 261.4375 144.460938 C 228.574219 129.460938 242.847656 114.066406 240.171875 89.710938 C 240.023438 82.386719 239.132812 81.941406 232.140625 78.671875 C 228.125 76.246094 223.8125 74.515625 219.648438 72.386719 L 219.945312 72.089844 C 219.550781 71.347656 218.707031 69.664062 218.261719 68.773438 L 218.113281 68.820312 C 217.46875 67.285156 216.972656 65.753906 216.726562 64.117188 C 216.574219 62.238281 215.683594 61.097656 213.601562 60.753906 C 208.347656 59.664062 203.140625 60.503906 201.011719 66 L 200.960938 66 C 200.464844 67.433594 199.472656 68.96875 198.234375 69.664062 L 198.976562 70.355469 C 198.929688 70.40625 198.929688 70.453125 198.878906 70.554688 L 197.6875 70.207031 C 197.6875 70.15625 197.6875 70.058594 197.6875 70.007812 C 197.042969 70.304688 196.25 70.554688 195.410156 70.554688 C 170.027344 66.246094 162.441406 86.046875 166.210938 107.878906 C 164.722656 113.523438 163.386719 119.164062 162.046875 124.757812 C 158.082031 143.472656 146.132812 155.105469 142.070312 173.222656 C 140.980469 177.628906 136.515625 185.695312 140.433594 188.519531 C 139.738281 193.667969 141.921875 199.261719 145.835938 203.121094 C 139.988281 203.269531 131.808594 212.824219 138.699219 217.527344 C 141.226562 218.617188 144.25 218.515625 146.976562 218.960938 L 146.777344 219.65625 C 146.878906 220.296875 147.917969 220.25 148.464844 220.199219 C 148.464844 221.683594 148.265625 223.316406 148.859375 224.65625 C 148.910156 225.398438 149.257812 225.644531 149.40625 225.59375 C 150.398438 225.644531 151.4375 225.496094 152.480469 225.546875 C 154.015625 228.019531 156.347656 229.605469 158.726562 228.316406 C 160.164062 227.574219 160.164062 225.546875 161.550781 224.507812 C 165.167969 222.230469 169.285156 222.625 173.101562 222.675781 C 174.6875 227.972656 175.382812 233.367188 176.621094 238.714844 C 174.984375 240.742188 173.101562 242.820312 170.96875 245 L 170.671875 244.949219 L 170.375 245.050781 C 168.738281 243.613281 166.953125 241.140625 164.625 242.03125 C 145.339844 224.65625 114.308594 227.328125 90.464844 227.527344 C 79.65625 227.675781 68.554688 227.773438 57.597656 228.269531 C 54.476562 228.316406 52.441406 228.566406 52.34375 230.890625 C 50.261719 230.992188 48.726562 231.484375 46.792969 231.632812 C 45.601562 231.683594 44.957031 231.78125 44.90625 232.128906 C 45.15625 235.445312 45.253906 238.960938 46.445312 242.078125 C 47.683594 245.148438 51.402344 245.148438 54.226562 244.011719 C 55.316406 243.5625 54.375 242.226562 54.328125 241.4375 C 53.683594 238.8125 53.285156 236.089844 53.136719 233.316406 C 54.476562 233.417969 55.664062 233.464844 57.203125 233.515625 L 57.25 234.207031 C 59.976562 234.308594 71.578125 234.503906 74.402344 234.109375 C 73.261719 235.496094 72.816406 236.929688 73.90625 238.515625 C 76.832031 241.78125 82.285156 240.296875 86.152344 240.792969 L 86.203125 242.03125 C 25.425781 253.367188 2.277344 335.738281 46.394531 378.113281 C 89.523438 424.890625 172.011719 397.023438 180.339844 334.796875 C 183.90625 335.390625 187.527344 335.886719 191.097656 336.628906 C 188.964844 338.558594 185.941406 339.5 183.859375 341.382812 C 180.238281 344.894531 179.199219 347.171875 180.835938 348.953125 L 180.882812 348.90625 C 182.222656 349.648438 183.808594 349.597656 185.296875 349.054688 C 186.238281 349.203125 187.179688 349.351562 188.121094 349.351562 C 189.609375 349.300781 191.046875 348.953125 191.441406 347.765625 C 191.492188 347.320312 190.601562 346.527344 190.203125 346.183594 C 192.535156 344.550781 194.863281 342.71875 197.539062 340.933594 C 198.183594 340.589844 198.480469 340.292969 198.730469 339.699219 C 210.230469 343.804688 222.226562 335.042969 229.5625 328.511719 C 229.5625 328.558594 229.5625 328.609375 229.515625 328.609375 C 230.40625 327.71875 231.347656 326.875 232.339844 326.726562 C 232.636719 326.429688 232.984375 326.132812 233.332031 325.886719 L 238.734375 326.085938 C 240.171875 326.132812 242.15625 326.429688 243.445312 325.984375 C 246.519531 324.5 245.179688 319.996094 243.640625 317.917969 C 246.121094 317.769531 248.601562 317.816406 251.027344 317.472656 C 257.273438 316.730469 255.492188 310.492188 250.484375 309.054688 C 249.09375 307.273438 242.898438 305.394531 242.75 303.117188 C 266.050781 278.414062 291.230469 254.902344 314.582031 231.535156 C 315.324219 234.058594 315.523438 236.734375 315.523438 239.257812 C 315.523438 245.347656 317.15625 251.433594 318.644531 257.277344 C 264.710938 291.285156 271.847656 380.140625 331.1875 404.296875 C 389.382812 430.882812 452.539062 376.527344 443.515625 315.835938 Z M 443.515625 315.835938 "/>
</g>
<g clip-path="url(#clip2)" clip-rule="nonzero">
<path style=" stroke:none;fill-rule:evenodd;fill:rgb(0%,0%,0%);fill-opacity:1;" d="M 368.316406 242.96875 C 370.546875 242.128906 372.132812 240.347656 373.324219 238.367188 C 373.570312 237.96875 373.222656 237.523438 372.828125 237.476562 C 361.972656 236.386719 350.71875 237.425781 340.308594 240.792969 C 337.484375 241.535156 334.707031 243.265625 331.683594 243.019531 C 331.238281 242.179688 330.742188 241.386719 330.195312 240.59375 C 341.003906 230.742188 353.148438 219.703125 355.726562 204.804688 C 357.0625 204.359375 358.402344 203.765625 359.589844 202.972656 C 360.878906 202.972656 361.128906 201.488281 361.425781 200.496094 C 362.269531 197.773438 363.210938 195.050781 364.101562 192.328125 C 368.316406 179.507812 372.925781 166.835938 377.488281 154.164062 C 378.179688 152.035156 379.023438 149.90625 379.371094 147.726562 C 381.207031 146.09375 377.089844 145.152344 376 144.609375 C 367.621094 141.195312 358.5 140.003906 349.480469 139.90625 C 332.722656 139.660156 315.769531 139.808594 299.261719 142.777344 C 299.015625 141.835938 298.667969 141.984375 298.816406 142.875 C 298.71875 142.925781 298.765625 143.023438 298.816406 143.074219 C 299.113281 148.519531 300.105469 153.964844 301.144531 159.359375 C 294.15625 154.359375 287.414062 148.617188 279.1875 145.746094 C 280.175781 145.550781 280.476562 143.964844 279.484375 143.621094 C 279.832031 136.835938 272.34375 136.242188 267.933594 139.558594 C 266.59375 140.699219 265.75 143.816406 267.933594 144.460938 C 266.59375 144.707031 265.40625 145.152344 264.214844 145.746094 C 264.3125 143.667969 262.875 141.789062 260.746094 143.273438 C 229.316406 128.273438 242.652344 116.046875 240.222656 89.167969 C 240.023438 81.542969 238.933594 80.949219 231.84375 77.632812 C 228.125 75.355469 224.0625 73.722656 220.144531 71.742188 L 217.964844 67.386719 C 218.460938 69.167969 218.164062 71.246094 219.402344 72.78125 C 219.351562 74.8125 218.90625 75.851562 217.070312 76.941406 C 211.125 81.246094 197.042969 78.324219 197.789062 69.664062 C 199.277344 68.671875 199.820312 66.839844 200.167969 65.207031 C 200.21875 65.058594 199.96875 64.910156 199.871094 65.109375 C 199.078125 67.484375 197.640625 69.265625 194.960938 69.464844 C 173.746094 66.496094 164.824219 77.484375 164.277344 95.75 C 164.03125 100.898438 164.375 102.335938 165.070312 107.433594 C 163.582031 113.027344 162.292969 118.621094 160.90625 124.214844 C 158.277344 135.945312 154.710938 141.144531 149.15625 151.886719 C 145.886719 158.617188 142.515625 165.351562 140.929688 172.675781 C 139.9375 176.738281 135.378906 185.300781 139.242188 188.417969 C 138.746094 193.46875 140.632812 198.566406 144.050781 202.328125 C 137.707031 203.21875 130.867188 213.320312 137.855469 217.574219 C 140.285156 218.664062 143.011719 218.617188 145.589844 218.960938 C 145.339844 219.804688 146.480469 220.398438 147.226562 220.347656 C 147.226562 221.683594 147.125 223.070312 147.671875 224.308594 C 147.769531 225 148.019531 225.695312 148.8125 225.695312 C 149.703125 225.742188 150.644531 225.644531 151.539062 225.644531 C 153.023438 227.921875 155.652344 229.851562 158.429688 228.367188 C 160.0625 227.574219 160.0625 225.546875 161.351562 224.457031 C 164.375 222.527344 168.539062 222.675781 172.011719 222.773438 C 173.449219 227.773438 174.191406 232.972656 175.332031 238.019531 C 173.695312 240.050781 171.960938 241.929688 170.175781 243.761719 C 170.128906 243.761719 170.027344 243.761719 169.976562 243.761719 C 168.441406 242.328125 166.605469 240.050781 164.226562 240.742188 C 146.332031 225.148438 120.753906 225.890625 98.199219 226.238281 C 85.0625 226.4375 71.875 226.484375 58.738281 226.980469 C 56.308594 227.230469 51.796875 226.585938 51.300781 229.753906 C 50.113281 229.851562 48.921875 230 47.734375 230.25 C 46.644531 230.644531 43.867188 230.101562 43.816406 231.585938 C 44.066406 235 44.164062 238.566406 45.402344 241.78125 C 46.941406 245.347656 50.757812 245.296875 53.980469 244.109375 C 54.722656 243.910156 55.070312 243.21875 54.921875 242.476562 C 54.523438 240.59375 54.027344 238.714844 53.78125 236.78125 C 53.632812 235.695312 53.535156 234.554688 53.433594 233.417969 C 54.574219 233.515625 55.664062 233.515625 56.804688 233.566406 C 45.800781 234.503906 71.179688 234.503906 72.667969 234.355469 C 71.875 235.546875 72.121094 237.226562 72.964844 238.367188 C 75.890625 241.832031 81.542969 240.445312 85.605469 240.890625 C 23.195312 253.710938 1.285156 334.152344 45.402344 377.964844 C 90.859375 425.039062 170.128906 397.765625 180.339844 334.945312 C 183.261719 335.441406 186.1875 335.835938 189.113281 336.382812 C 187.179688 337.867188 184.703125 338.660156 182.964844 340.292969 C 181.03125 342.171875 177.511719 345.835938 179.695312 348.507812 C 178.902344 349.25 177.464844 350.984375 178.800781 351.777344 C 178.851562 351.824219 178.949219 351.726562 179 351.675781 C 189.507812 354.546875 200.761719 355.09375 211.617188 354.351562 C 221.484375 354.351562 228.078125 348.113281 229.316406 338.609375 C 230.40625 334.402344 229.21875 328.855469 233.132812 325.9375 C 234.867188 325.984375 236.601562 326.035156 238.339844 326.132812 C 239.925781 326.183594 241.808594 326.53125 243.34375 325.984375 C 246.417969 324.648438 245.875 320.242188 244.4375 317.917969 C 246.566406 317.816406 248.699219 317.816406 250.832031 317.519531 C 257.820312 316.53125 256.132812 309.796875 250.582031 307.96875 C 249.441406 306.480469 243.542969 304.351562 243.097656 302.621094 C 243.097656 302.324219 243.542969 302.027344 243.742188 301.777344 L 244.535156 300.988281 C 267.488281 277.871094 290.734375 255.050781 313.9375 232.226562 C 314.777344 235.496094 314.429688 238.910156 314.730469 242.277344 C 315.175781 247.078125 316.414062 251.832031 317.605469 256.484375 C 263.519531 292.273438 270.460938 378.605469 330.59375 404.347656 C 400.4375 434.246094 465.875 360.140625 437.867188 294.105469 C 426.5625 266.136719 399.050781 244.949219 368.316406 242.96875 Z M 432.910156 357.667969 C 413.476562 407.863281 345.910156 422.8125 308.285156 382.765625 C 274.722656 349.550781 279.679688 288.613281 318.941406 261.730469 C 319.289062 262.871094 319.636719 264.007812 319.984375 265.148438 C 273.632812 297.917969 280.921875 374.050781 333.8125 396.378906 C 396.523438 423.207031 455.167969 356.628906 429.984375 297.421875 C 415.507812 259.601562 368.316406 239.605469 331.238281 258.414062 C 330.890625 257.324219 330.59375 256.1875 330.246094 255.050781 C 396.125 224.359375 459.679688 294.699219 432.910156 357.667969 M 370.347656 327.769531 C 371.390625 328.660156 372.480469 329.550781 373.570312 330.390625 C 372.28125 330.292969 371.042969 330.144531 369.753906 330.042969 C 370.101562 329.300781 370.300781 328.558594 370.347656 327.769531 Z M 367.769531 329.203125 C 367.820312 329.105469 367.871094 329.054688 367.917969 328.957031 C 367.871094 329.003906 367.820312 329.105469 367.769531 329.203125 M 367.324219 329.847656 C 367.425781 329.699219 367.523438 329.597656 367.621094 329.449219 C 367.621094 329.5 367.621094 329.5 367.621094 329.5 C 367.574219 329.597656 367.472656 329.699219 367.375 329.847656 C 367.375 329.847656 367.375 329.847656 367.324219 329.847656 M 363.457031 328.214844 C 363.457031 328.214844 363.457031 328.164062 363.457031 328.066406 C 363.507812 328.066406 363.507812 328.066406 363.507812 328.066406 C 363.507812 328.113281 363.457031 328.214844 363.457031 328.214844 M 363.507812 325.886719 C 363.160156 324.5 361.773438 323.558594 361.375 322.472656 C 361.375 322.421875 361.425781 322.324219 361.425781 322.273438 C 363.605469 321.53125 366.582031 323.214844 366.382812 325.640625 C 365.042969 325.046875 364.398438 326.628906 363.507812 327.320312 C 363.558594 326.828125 363.605469 326.382812 363.507812 325.886719 M 360.484375 329.746094 C 360.433594 329.847656 360.433594 329.945312 360.433594 330.042969 C 359.988281 330.195312 359.394531 330.34375 359.195312 330.738281 C 359.046875 330.6875 358.847656 330.640625 358.699219 330.589844 C 359.394531 330.492188 359.988281 330.195312 360.484375 329.746094 M 358.003906 321.878906 C 358.003906 321.382812 358.847656 321.28125 359.246094 321.085938 C 359.046875 321.429688 358.898438 321.925781 358.898438 322.324219 C 358.601562 322.175781 358.304688 322.074219 357.957031 322.027344 C 358.003906 322.027344 358.152344 321.828125 358.003906 321.878906 M 356.269531 325.738281 C 355.875 325.046875 355.378906 324.449219 355.03125 323.707031 C 355.082031 323.660156 355.128906 323.660156 355.128906 323.609375 C 360.929688 322.867188 361.523438 328.660156 358.003906 329.105469 C 357.957031 328.164062 357.855469 328.164062 357.90625 329.105469 C 356.566406 329.105469 355.082031 328.660156 354.386719 327.472656 C 354.4375 327.421875 354.386719 327.371094 354.335938 327.421875 C 354.238281 327.273438 354.1875 327.125 354.140625 326.976562 C 355.03125 328.261719 357.015625 327.074219 356.269531 325.738281 M 310.714844 276.878906 C 313.785156 273.511719 317.207031 270.394531 320.777344 267.722656 C 327.519531 287.671875 337.433594 306.730469 350.867188 323.164062 C 350.371094 322.917969 349.875 322.621094 349.378906 322.371094 C 348.238281 320.835938 346.902344 319.402344 345.660156 317.917969 C 334.113281 304.203125 322.609375 290.34375 310.714844 276.878906 M 294.007812 346.035156 C 291.976562 338.359375 291.183594 330.242188 291.679688 322.222656 C 310.515625 325.34375 329.949219 323.609375 348.6875 327.519531 C 330.492188 333.707031 312.101562 339.5 294.007812 346.035156 M 299.707031 344.402344 C 314.828125 339.597656 329.847656 334.597656 344.867188 329.648438 C 346.605469 329.054688 348.386719 328.558594 350.074219 327.867188 C 350.621094 327.964844 351.164062 328.066406 351.710938 328.164062 C 352.253906 328.261719 352.503906 327.519531 351.957031 327.324219 C 332.277344 322.421875 311.65625 324.699219 291.679688 322.175781 C 292.667969 305.589844 299.410156 289.304688 310.664062 276.976562 C 322.5625 291.878906 334.953125 306.433594 347.097656 321.132812 C 331.386719 312.570312 315.027344 305.195312 298.074219 299.304688 C 316.265625 306.480469 334.953125 315.242188 352.304688 324.945312 C 352.453125 325.09375 352.550781 325.242188 352.703125 325.390625 C 352.453125 326.332031 352.550781 327.273438 352.949219 328.066406 C 337.136719 338.0625 320.480469 347.273438 304.914062 357.714844 C 304.714844 357.914062 304.914062 358.261719 305.210938 358.210938 C 321.125 349.054688 336.589844 338.90625 352.105469 329.105469 C 349.628906 332.171875 347.296875 335.292969 345.117188 338.558594 C 342.140625 340.886719 339.167969 343.210938 336.195312 345.539062 C 326.378906 353.261719 316.511719 360.933594 306.746094 368.753906 C 318.992188 359.796875 331.433594 349.945312 343.730469 340.636719 C 334.65625 354.152344 326.972656 368.507812 320.925781 383.507812 C 320.628906 384.199219 321.769531 384.449219 322.015625 383.804688 C 328.660156 368.113281 336.789062 353.0625 346.207031 338.808594 C 349.132812 336.183594 353.046875 334.105469 355.578125 331.234375 C 355.527344 330.984375 355.230469 330.738281 354.933594 330.9375 C 352.453125 332.71875 350.074219 334.648438 347.695312 336.53125 C 349.480469 333.808594 351.363281 331.132812 353.195312 328.460938 C 353.792969 329.402344 354.734375 330.144531 355.875 330.492188 C 355.578125 331.828125 356.914062 332.667969 358.152344 333.015625 C 359.34375 354.992188 360.632812 376.972656 362.46875 398.902344 C 362.566406 399.445312 363.359375 399.25 363.359375 398.804688 C 362.070312 376.921875 360.335938 354.992188 358.402344 333.113281 C 361.625 333.808594 365.539062 334.105469 368.316406 332.125 C 373.96875 353.261719 378.082031 374.695312 381.207031 396.328125 C 381.253906 396.675781 381.800781 396.574219 381.800781 396.230469 C 379.570312 374.449219 375.007812 352.765625 368.664062 331.777344 C 369.058594 331.382812 369.359375 330.9375 369.65625 330.441406 C 371.242188 330.6875 372.878906 330.886719 374.464844 331.085938 C 388.988281 342.570312 403.859375 353.757812 419.425781 363.757812 C 419.722656 363.90625 420.070312 363.507812 419.773438 363.308594 C 404.902344 352.667969 389.832031 342.273438 375.257812 331.183594 C 394.441406 333.3125 413.773438 333.808594 433.007812 332.816406 C 425.421875 413.503906 316.5625 424.839844 294.058594 346.082031 C 295.941406 345.636719 297.824219 344.996094 299.707031 344.402344 M 370 319.105469 C 386.707031 307.570312 402.472656 294.601562 417.691406 281.234375 C 422.300781 287.125 425.96875 293.808594 428.597656 300.9375 C 408.765625 306.136719 389.1875 312.421875 370.101562 319.898438 C 369.605469 320.09375 369.953125 320.886719 370.449219 320.738281 C 389.582031 313.511719 408.964844 306.925781 428.597656 301.035156 C 432.214844 310.839844 433.703125 321.480469 433.007812 332.023438 C 415.757812 332.816406 398.457031 332.570312 381.253906 331.085938 C 378.925781 330.886719 376.59375 330.6875 374.265625 330.441406 C 372.976562 329.5 371.6875 328.511719 370.398438 327.570312 C 370.597656 324.945312 369.457031 322.222656 367.277344 320.589844 C 367.472656 319.898438 367.425781 319.15625 367.523438 318.410156 C 367.96875 317.570312 368.367188 316.679688 368.761719 315.835938 C 377.4375 298.363281 387.550781 281.679688 397.710938 265.046875 C 386.164062 280.097656 376.546875 297.472656 367.820312 314.5 C 369.308594 294.550781 371.933594 274.703125 374.5625 254.851562 C 391.566406 257.820312 407.082031 267.523438 417.589844 281.085938 C 402.71875 293.214844 387.648438 305.195312 372.132812 316.480469 C 371.738281 316.878906 368.265625 319.105469 370 319.105469 M 343.429688 264.207031 C 342.488281 261.929688 341.449219 259.703125 340.308594 257.472656 C 342.886719 256.582031 345.464844 255.890625 348.140625 255.347656 C 350.46875 274.703125 353.644531 294.007812 357.609375 313.066406 C 357.707031 313.363281 358.253906 313.363281 358.203125 312.964844 C 354.585938 293.808594 351.3125 274.554688 348.4375 255.246094 C 353.445312 254.207031 358.648438 253.761719 363.804688 253.859375 C 361.625 274.898438 360.535156 296.085938 360.878906 317.273438 C 360.878906 317.621094 361.425781 317.621094 361.476562 317.273438 C 361.671875 296.136719 362.46875 275 364.003906 253.910156 C 365.589844 253.960938 367.175781 254.058594 368.761719 254.15625 C 368.316406 255.394531 367.027344 258.761719 369.457031 258.613281 C 369.65625 258.5625 369.804688 258.367188 369.804688 258.167969 C 369.902344 256.878906 370.25 255.59375 370.496094 254.355469 C 371.738281 254.503906 372.976562 254.703125 374.214844 254.902344 C 370.347656 274.304688 368.367188 294.105469 366.679688 313.808594 C 366.53125 316.285156 366.582031 317.421875 365.34375 319.699219 C 363.753906 319.105469 361.871094 319.105469 360.285156 319.699219 C 348.882812 301.136719 338.078125 281.976562 331.929688 260.988281 C 334.308594 259.800781 336.789062 258.761719 339.265625 257.871094 C 339.863281 260.246094 340.605469 262.574219 341.496094 264.898438 C 341.84375 265.839844 342.292969 266.832031 342.984375 267.621094 C 345.066406 268.464844 343.828125 265 343.429688 264.207031 M 317.457031 245.148438 C 316.8125 241.78125 316.960938 238.367188 316.613281 234.949219 C 318.398438 234.753906 320.230469 234.355469 322.066406 234.355469 C 322.910156 234.308594 323.800781 234.457031 324.644531 234.207031 C 326.726562 235.644531 327.417969 238.167969 328.609375 240.296875 C 329.601562 242.078125 330.246094 244.011719 330.789062 245.941406 C 331.039062 246.78125 331.484375 247.96875 332.675781 247.625 C 333.367188 247.425781 333.914062 246.484375 333.269531 245.890625 C 332.773438 245.542969 332.675781 244.800781 332.328125 244.257812 C 335.796875 243.316406 339.21875 242.179688 342.636719 241.039062 C 352.058594 238.515625 361.972656 237.671875 371.6875 238.515625 C 370.300781 240 368.070312 240.347656 366.332031 241.335938 C 365.9375 241.4375 365.539062 241.484375 365.144531 241.683594 C 364.699219 242.128906 364.101562 242.425781 363.507812 242.671875 C 351.511719 242.523438 339.714844 245 328.855469 250.050781 C 327.566406 245.445312 326.429688 240.84375 325.386719 236.238281 C 325.335938 236.039062 325.039062 236.089844 325.039062 236.289062 C 326.179688 261.039062 343.382812 300.738281 359.046875 320.144531 C 358.601562 320.492188 357.210938 321.234375 357.660156 321.878906 C 356.617188 321.628906 353.890625 321.53125 354.238281 323.164062 C 335.796875 300.640625 322.710938 273.710938 317.457031 245.148438 M 315.820312 230.84375 C 314.730469 226.882812 313.242188 223.019531 312.648438 218.960938 C 311.507812 212.574219 309.621094 206.386719 307.738281 200.199219 C 307.839844 200.152344 307.9375 200.101562 307.988281 199.953125 C 308.136719 199.011719 308.929688 198.566406 309.871094 198.367188 C 311.507812 197.921875 312.5 198.515625 313.835938 199.210938 C 313.835938 199.261719 313.835938 199.359375 313.835938 199.410156 C 316.5625 210.199219 320.28125 220.992188 323.207031 231.78125 C 320.828125 231.980469 318.445312 232.574219 316.464844 233.863281 C 316.316406 232.871094 316.117188 231.882812 315.820312 230.84375 M 285.628906 258.070312 C 272.097656 271.535156 258.859375 285.195312 245.230469 298.511719 C 244.285156 299.75 242.007812 301.136719 241.808594 302.570312 C 241.066406 302.125 240.371094 301.679688 239.628906 301.285156 C 240.074219 301.035156 239.777344 300.492188 239.328125 300.34375 C 240.867188 300.292969 237.941406 299.949219 237.59375 299.949219 C 237.644531 299.898438 237.695312 299.847656 237.742188 299.800781 C 259.65625 272.523438 287.859375 250.542969 311.605469 224.851562 C 312.199219 226.78125 312.84375 228.761719 313.441406 230.695312 C 304.121094 239.753906 294.851562 248.859375 285.628906 258.070312 M 249.492188 308.660156 C 249.542969 309.007812 249.886719 309.15625 250.1875 309.351562 C 249.046875 309.796875 247.804688 309.796875 246.617188 309.75 C 243.988281 309.648438 241.410156 309.550781 238.785156 309.402344 C 224.804688 308.808594 210.824219 307.371094 196.894531 306.480469 C 196.796875 303.265625 196.796875 299.949219 197.738281 296.828125 C 197.789062 296.828125 197.886719 296.878906 197.9375 296.878906 C 198.679688 299.699219 202.796875 302.917969 205.917969 302.472656 C 209.636719 301.730469 211.816406 298.214844 214.890625 296.332031 C 216.476562 295.246094 218.164062 294.253906 220.097656 293.859375 C 220.589844 294.007812 221.136719 294.007812 221.535156 293.710938 C 224.753906 293.414062 227.679688 295.441406 230.308594 297.027344 C 228.671875 297.375 225.597656 298.015625 224.855469 299.601562 C 224.605469 300.691406 225.847656 300.886719 226.640625 300.886719 C 227.136719 300.839844 227.285156 300.144531 226.738281 299.996094 C 226.6875 299.996094 226.589844 299.949219 226.441406 299.898438 C 226.492188 299.847656 226.492188 299.800781 226.539062 299.800781 C 227.085938 299.898438 227.78125 299.453125 228.273438 299.304688 C 229.515625 298.859375 230.753906 298.460938 232.042969 298.214844 C 233.082031 298.859375 234.125 299.503906 235.164062 300.097656 C 233.828125 300.394531 231.347656 301.234375 231.300781 302.867188 C 231.347656 303.5625 232.140625 303.710938 232.488281 303.3125 C 232.636719 303.214844 232.738281 303.015625 232.6875 302.867188 C 233.726562 301.332031 235.957031 301.925781 237.59375 301.582031 C 241.609375 303.90625 245.527344 306.285156 249.492188 308.660156 M 196.796875 307.125 C 196.796875 307.027344 196.847656 306.925781 196.847656 306.828125 C 197.144531 306.925781 197.492188 306.976562 197.886719 307.027344 C 197.492188 307.027344 197.144531 307.074219 196.796875 307.125 M 251.078125 309.996094 C 255.042969 312.371094 254.695312 315.835938 249.789062 316.035156 C 243.890625 316.53125 237.941406 316.480469 232.042969 316.234375 C 220.640625 315.789062 209.289062 314.054688 198.183594 311.332031 C 196.449219 311.136719 196.101562 309.898438 196.101562 308.363281 C 196.550781 307.71875 197.589844 307.820312 198.433594 307.820312 C 213.15625 308.117188 227.78125 310.34375 242.550781 310.691406 C 243.792969 310.589844 248.550781 311.433594 248.898438 310.390625 C 249.589844 310.292969 250.433594 310.390625 251.078125 309.996094 M 241.410156 321.628906 C 241.410156 322.027344 241.410156 322.421875 241.410156 322.816406 C 239.675781 322.867188 237.941406 322.917969 236.207031 322.867188 C 236.355469 322.421875 236.257812 321.976562 236.007812 321.578125 C 236.058594 321.132812 235.910156 320.640625 235.5625 320.292969 C 235.5625 320.046875 235.511719 319.796875 235.414062 319.601562 C 237.445312 319.75 239.476562 319.945312 241.511719 320.144531 C 241.460938 320.640625 241.410156 321.234375 241.410156 321.628906 M 228.917969 327.222656 C 220.34375 334.550781 208.644531 343.015625 196.847656 337.71875 C 194.914062 336.875 193.078125 335.9375 190.996094 335.390625 C 161.75 330.441406 132.304688 326.132812 102.707031 323.511719 C 104.492188 321.878906 104.195312 319.351562 104.59375 317.175781 C 104.492188 317.964844 105.089844 318.511719 105.882812 318.609375 C 127.050781 320.738281 148.066406 324.402344 169.085938 327.519531 C 169.085938 327.570312 169.085938 327.570312 169.085938 327.621094 C 174.191406 328.164062 179.25 329.203125 184.304688 329.996094 C 187.527344 330.539062 190.796875 331.132812 194.019531 331.578125 C 194.269531 331.628906 194.417969 331.53125 194.566406 331.382812 C 195.160156 331.429688 195.804688 331.382812 196.398438 331.234375 C 198.332031 338.015625 206.808594 339.5 205.867188 330.738281 C 208.59375 329.746094 211.273438 328.757812 213.949219 327.667969 C 214.941406 327.171875 218.210938 326.679688 216.675781 325.09375 C 221.039062 326.035156 225.351562 325.589844 229.761719 325.9375 C 229.414062 326.332031 229.117188 326.777344 228.917969 327.222656 M 227.285156 335.390625 C 226.492188 344.003906 223.070312 351.628906 213.207031 352.121094 C 201.851562 353.210938 190.453125 352.371094 179.097656 351.527344 C 179.148438 351.429688 179.097656 351.332031 179 351.429688 C 179 350.441406 179.792969 349.699219 180.539062 349.101562 C 181.875 349.746094 183.511719 349.597656 184.898438 349.203125 C 187.082031 349.5 189.660156 349.894531 191.246094 348.113281 C 192.039062 347.273438 191.492188 346.332031 190.75 345.6875 C 192.78125 344.253906 194.8125 342.765625 196.796875 341.28125 C 197.390625 340.835938 198.234375 340.589844 198.582031 339.894531 C 209.535156 343.3125 220.097656 336.429688 228.027344 329.699219 C 227.628906 331.578125 227.53125 333.609375 227.285156 335.390625 M 180.339844 346.527344 C 180.835938 344.203125 182.519531 342.171875 184.253906 340.539062 C 186.484375 339.648438 188.371094 338.210938 190.402344 337.023438 C 191.839844 336.53125 195.359375 338.757812 196.945312 339.300781 C 193.226562 342.371094 189.113281 344.945312 184.75 347.023438 C 184.207031 347.273438 183.660156 347.570312 183.066406 347.71875 C 182.816406 347.570312 182.371094 347.667969 182.171875 347.867188 C 181.230469 348.015625 180.191406 347.71875 180.339844 346.527344 M 170.425781 350.191406 C 151.390625 398.65625 85.804688 412.863281 49.320312 374.398438 C 8.621094 334.003906 27.757812 259.75 84.960938 246.484375 C 85.0625 247.277344 85.257812 248.019531 85.558594 248.761719 C 31.523438 261.832031 14.320312 333.460938 52.246094 371.726562 C 92.792969 414.25 161.550781 389.300781 170.871094 333.558594 C 172.308594 333.757812 173.695312 334.003906 175.132812 334.203125 C 174.140625 339.648438 172.554688 344.996094 170.425781 350.191406 M 101.867188 244.457031 C 119.859375 244.40625 137.410156 251.238281 150.695312 263.117188 C 150.546875 263.367188 150.25 263.613281 150.199219 263.910156 C 149.703125 264.40625 149.207031 264.898438 148.664062 265.394531 C 132.402344 249.851562 108.210938 243.117188 86.203125 248.515625 C 85.855469 247.820312 85.605469 247.078125 85.410156 246.335938 C 90.8125 245.097656 96.265625 244.457031 101.867188 244.457031 M 84.863281 239.355469 C 81.492188 239.011719 75.296875 240.296875 73.261719 237.128906 C 72.71875 236.289062 72.570312 235.25 73.015625 234.40625 C 93.6875 234.308594 114.457031 233.070312 135.128906 233.910156 C 141.425781 234.257812 147.226562 237.226562 152.578125 240.347656 C 152.480469 240.394531 152.429688 240.445312 152.378906 240.542969 C 135.527344 240.199219 118.671875 240.199219 101.867188 239.257812 C 96.164062 239.457031 90.515625 239.554688 84.863281 239.355469 M 63.992188 231.929688 C 60.425781 232.03125 56.902344 232.226562 53.335938 232.625 C 53.335938 231.484375 53.484375 229.652344 51.847656 229.703125 C 52.492188 227.527344 58.984375 228.566406 61.019531 228.269531 C 73.066406 228.019531 85.109375 227.871094 97.15625 227.773438 C 120.109375 227.082031 145.339844 227.230469 163.832031 242.03125 C 163.882812 242.078125 163.980469 242.078125 164.078125 242.03125 C 165.664062 241.089844 167.699219 243.910156 168.789062 244.851562 C 167.945312 245.644531 166.953125 246.285156 166.0625 247.03125 C 165.664062 246.585938 165.269531 246.136719 164.921875 245.59375 C 165.320312 245.199219 165.417969 244.554688 164.773438 244.207031 C 161.351562 242.375 157.832031 240.691406 154.363281 238.960938 C 151.835938 237.871094 149.652344 236.140625 147.125 235.050781 C 145.636719 234.40625 144.050781 233.863281 142.464844 233.417969 C 139.789062 232.476562 137.011719 231.832031 134.136719 231.585938 C 110.789062 230.84375 87.339844 231.386719 63.992188 231.929688 M 50.90625 242.277344 C 51.300781 242.128906 51.601562 241.78125 51.75 241.335938 C 51.796875 241.585938 51.847656 241.832031 51.945312 242.078125 C 51.601562 242.128906 51.253906 242.226562 50.90625 242.277344 M 163.730469 246.136719 C 163.929688 247.128906 164.871094 247.773438 165.320312 248.664062 C 161.601562 252.179688 157.785156 255.59375 154.265625 259.257812 C 144.796875 250.792969 133.34375 244.703125 121 241.585938 C 131.460938 241.78125 141.921875 241.980469 152.378906 242.179688 C 152.726562 242.179688 152.976562 242.03125 153.074219 241.78125 C 153.621094 241.632812 154.3125 241.484375 154.710938 241.238281 C 157.683594 242.722656 160.660156 244.257812 163.632812 245.644531 C 163.683594 245.839844 163.683594 245.988281 163.730469 246.136719 M 98.542969 276.085938 C 101.371094 286.234375 102.859375 296.828125 106.625 306.679688 C 106.625 306.730469 106.722656 306.730469 106.722656 306.679688 C 106.675781 306.136719 106.722656 305.640625 106.675781 305.097656 C 105.1875 296.53125 102.90625 288.117188 100.925781 279.652344 C 103.402344 283.5625 109.847656 299.699219 113.761719 300.046875 C 111.035156 302.71875 108.359375 305.441406 105.632812 308.117188 C 103.054688 310.640625 100.527344 313.90625 96.761719 314.601562 C 95.421875 314.796875 94.035156 315.09375 93.191406 316.183594 C 92.546875 315.292969 92.792969 314.105469 93.339844 313.164062 C 96.066406 309.15625 101.914062 310.839844 105.386719 307.917969 C 106.03125 307.324219 104.988281 306.332031 104.246094 306.925781 C 102.90625 308.015625 101.121094 308.3125 99.4375 308.609375 C 93.835938 289.800781 88.433594 270.890625 82.433594 252.226562 C 83.773438 251.78125 85.109375 251.433594 86.5 251.089844 C 89.375 256.285156 91.804688 261.582031 94.429688 266.878906 C 95.71875 269.949219 98.050781 272.769531 98.542969 276.085938 M 125.609375 340.933594 C 124.769531 340.042969 121.941406 341.429688 123.480469 342.320312 C 124.816406 342.519531 126.207031 342.519531 127.542969 342.570312 C 140.035156 342.964844 152.527344 344.203125 164.972656 345.292969 C 148.761719 391.578125 88.433594 406.675781 54.027344 369.945312 C 18.585938 334.203125 32.761719 267.472656 82.1875 252.226562 C 87.339844 271.136719 93.140625 289.898438 98.742188 308.660156 C 97.304688 308.957031 95.867188 309.304688 94.578125 310.046875 C 91.953125 311.382812 89.871094 315.242188 92.398438 317.570312 C 90.367188 323.511719 98.050781 328.3125 102.558594 323.707031 C 124.472656 327.074219 146.429688 329.648438 168.34375 333.113281 C 167.699219 336.828125 166.707031 340.488281 165.46875 344.054688 C 164.277344 343.410156 162.839844 343.558594 161.550781 343.3125 C 160.164062 343.113281 158.773438 342.964844 157.4375 342.816406 C 146.878906 341.726562 136.320312 341.035156 125.710938 341.082031 C 125.660156 341.035156 125.660156 340.984375 125.609375 340.933594 M 173.25 242.574219 C 174.09375 241.78125 175.035156 240.992188 175.828125 240.148438 C 176.375 242.871094 176.96875 245.59375 177.5625 248.316406 C 153.421875 270.492188 128.734375 292.125 104.789062 314.453125 C 104.640625 314.15625 104.195312 314.054688 103.898438 314.054688 C 103.949219 314.054688 103.601562 314.105469 103.550781 314.105469 C 103.601562 314.105469 103.601562 314.105469 103.652344 314.105469 C 103.007812 314.105469 102.410156 314.601562 102.3125 315.195312 C 101.964844 316.035156 102.511719 317.125 103.402344 317.371094 C 103.351562 317.667969 103.304688 318.015625 103.304688 318.3125 C 102.859375 317.867188 102.214844 317.71875 101.71875 317.371094 C 100.925781 316.777344 99.882812 316.085938 98.890625 316.234375 C 96.859375 315.640625 95.324219 317.472656 97.40625 317.570312 C 98 317.472656 98.542969 317.324219 99.039062 317.371094 C 100.03125 318.660156 101.023438 321.480469 103.105469 320.390625 C 102.90625 321.480469 102.113281 323.066406 100.972656 323.363281 C 100.875 323.410156 101.023438 323.460938 101.074219 323.460938 C 96.761719 326.53125 91.257812 321.53125 93.933594 317.074219 C 94.726562 315.789062 96.363281 315.789062 97.703125 315.492188 C 98.445312 315.292969 99.1875 314.996094 99.882812 314.601562 C 107.566406 308.808594 113.714844 301.136719 120.753906 294.601562 C 138.300781 277.277344 155.554688 259.703125 173.25 242.574219 M 109.996094 311.136719 C 112.820312 308.5625 115.695312 305.988281 118.523438 303.414062 C 123.082031 305.34375 127.742188 307.027344 132.351562 308.808594 C 124.867188 309.15625 117.332031 309.5 109.996094 311.136719 M 113.664062 313.808594 C 111.484375 312.472656 108.855469 313.015625 106.675781 314.105469 C 107.566406 313.214844 108.609375 312.371094 109.550781 311.53125 C 116.984375 311.136719 124.421875 310.144531 131.855469 309.996094 C 132.996094 309.945312 134.1875 309.945312 135.328125 309.898438 C 137.261719 310.640625 139.195312 311.332031 141.128906 312.027344 C 150.496094 315.390625 159.964844 318.609375 169.433594 321.628906 C 169.382812 323.261719 169.332031 324.847656 169.183594 326.429688 C 151.339844 323.660156 133.542969 320.984375 115.597656 318.808594 C 117.035156 317.324219 115.152344 314.601562 113.664062 313.808594 M 176.222656 323.660156 C 176.175781 324.945312 176.074219 326.234375 175.976562 327.519531 C 174.539062 327.273438 173.152344 327.074219 171.714844 326.828125 C 171.863281 325.34375 171.910156 323.855469 171.960938 322.371094 C 173.398438 322.816406 174.785156 323.261719 176.222656 323.660156 M 172.011719 320.886719 C 172.308594 302.820312 165.964844 284.800781 154.117188 271.085938 C 154.910156 270.34375 155.703125 269.652344 156.496094 268.910156 C 169.632812 283.316406 176.71875 302.671875 176.273438 322.125 C 174.835938 321.679688 173.449219 321.28125 172.011719 320.886719 M 175.382812 288.910156 C 171.761719 280.195312 166.757812 272.277344 160.460938 265.296875 C 166.261719 260.046875 172.058594 254.800781 177.859375 249.605469 C 183.460938 276.53125 189.707031 303.363281 196.203125 330.09375 C 195.359375 330.390625 194.46875 330.441406 193.574219 330.390625 C 189.507812 329.597656 185.394531 328.957031 181.28125 328.3125 C 182.519531 314.945312 180.488281 301.285156 175.382812 288.910156 M 197.789062 331.28125 C 197.738281 331.085938 197.640625 330.886719 197.589844 330.6875 C 197.6875 330.886719 197.738281 331.085938 197.789062 331.28125 M 216.082031 320.589844 C 217.070312 317.964844 219.996094 316.878906 221.730469 319.5 C 224.011719 324.402344 214.988281 325.195312 216.082031 320.589844 M 214.34375 317.421875 C 213.75 318.90625 213.699219 320.539062 213.699219 322.125 C 213.699219 322.519531 213.898438 322.769531 214.148438 322.917969 C 214.59375 323.957031 215.386719 324.601562 216.378906 324.945312 C 215.238281 324.796875 214.34375 325.835938 213.304688 326.234375 C 210.777344 327.570312 208.246094 328.90625 205.71875 330.292969 C 204.726562 325.09375 202.496094 320.144531 202.449219 314.796875 C 202.300781 313.363281 204.878906 314.648438 205.671875 314.648438 C 208.296875 315.195312 210.875 315.640625 213.503906 316.035156 C 213.207031 316.628906 213.652344 317.421875 214.34375 317.421875 M 201.65625 313.808594 C 201.703125 313.808594 201.804688 313.859375 201.851562 313.859375 C 201.804688 313.90625 201.804688 313.957031 201.753906 314.007812 C 201.753906 313.90625 201.703125 313.859375 201.65625 313.808594 M 174.191406 222.277344 C 176.375 222.527344 178.554688 222.773438 180.734375 223.019531 C 182.917969 244.308594 187.527344 265.296875 193.625 285.890625 C 193.972656 287.125 194.367188 288.363281 194.714844 289.601562 C 195.261719 290.789062 195.160156 293.265625 196.894531 293.265625 C 196.796875 294.007812 196.746094 294.800781 196.746094 295.542969 C 196.152344 296.78125 195.65625 298.066406 195.410156 299.402344 C 194.960938 301.628906 194.863281 303.859375 194.714844 306.136719 C 194.367188 311.730469 195.308594 312.570312 200.761719 313.609375 C 202.199219 319.351562 202.894531 325.390625 204.132812 331.234375 C 204.332031 332.320312 204.628906 333.363281 204.332031 334.449219 C 203.539062 335.984375 201.953125 335.835938 200.664062 334.847656 C 199.425781 333.660156 199.078125 331.925781 198.53125 330.34375 C 193.425781 313.5625 190.003906 296.332031 186.535156 279.15625 C 182.964844 260.046875 177.859375 241.335938 174.191406 222.277344 M 190.402344 263.066406 C 190.402344 263.019531 190.402344 263.019531 190.402344 263.066406 C 197.988281 259.800781 205.523438 256.136719 213.054688 252.625 C 208.246094 265.542969 199.375 277.128906 197.144531 290.9375 C 194.417969 281.679688 192.1875 272.324219 189.957031 262.96875 C 190.054688 263.117188 190.304688 263.265625 190.402344 263.066406 M 189.164062 258.070312 C 198.035156 253.316406 207.109375 248.761719 215.734375 243.613281 C 215.136719 245.988281 214.542969 248.367188 213.800781 250.691406 C 209.140625 252.921875 204.480469 255.246094 199.820312 257.523438 C 196.847656 259.007812 193.871094 260.445312 190.949219 262.078125 C 190.699219 262.226562 190.003906 262.472656 190.003906 262.871094 C 189.660156 261.285156 189.261719 259.703125 188.914062 258.117188 C 188.964844 258.117188 189.0625 258.117188 189.164062 258.070312 M 183.363281 227.425781 C 183.015625 226.289062 183.015625 225.148438 182.769531 223.960938 C 183.90625 223.910156 185.097656 223.761719 186.238281 223.515625 C 187.476562 223.515625 188.714844 223.417969 189.90625 223.070312 C 197.6875 228.761719 205.769531 233.960938 214.148438 238.714844 C 214.941406 239.207031 215.78125 239.503906 216.675781 239.652344 C 216.425781 240.644531 216.230469 241.585938 215.980469 242.574219 C 207.058594 247.179688 197.886719 251.433594 189.164062 256.285156 C 192.234375 254.902344 195.308594 253.367188 198.332031 251.878906 C 195.210938 253.710938 191.742188 254.902344 188.566406 256.730469 C 186.585938 246.980469 184.058594 237.277344 183.363281 227.425781 M 219.300781 292.867188 C 215.289062 294.105469 211.867188 296.679688 208.644531 299.304688 C 205.671875 302.074219 201.507812 300.195312 199.277344 297.375 C 199.472656 297.078125 198.828125 297.078125 198.730469 296.730469 C 204.578125 289.105469 210.480469 288.316406 219.699219 288.316406 C 219.105469 289.75 219.003906 291.335938 219.300781 292.867188 M 161.253906 221.832031 C 159.519531 222.527344 158.527344 224.058594 157.882812 225.695312 C 157.140625 227.277344 155.15625 226.4375 154.3125 225.445312 C 153.125 223.714844 151.734375 222.625 149.554688 223.316406 C 148.910156 222.230469 148.8125 220.890625 148.511719 219.703125 C 152.875 220.695312 157.289062 221.339844 161.800781 221.636719 C 161.550781 221.683594 161.402344 221.785156 161.253906 221.832031 M 141.226562 179.011719 C 141.574219 177.972656 142.019531 176.933594 142.613281 175.945312 C 142.714844 175.796875 142.515625 175.597656 142.367188 175.648438 C 145.339844 162.132812 153.023438 151.738281 157.636719 138.769531 C 161.253906 127.480469 163.929688 120.796875 165.320312 109.066406 C 168.195312 123.175781 169.53125 133.964844 182.816406 142.679688 C 191.640625 148.371094 201.953125 151.6875 212.261719 153.519531 C 210.230469 155.746094 209.933594 158.867188 209.734375 161.738281 C 209.386719 166.785156 208.644531 171.984375 209.535156 176.984375 C 204.828125 177.628906 200.070312 177.28125 195.359375 176.585938 C 176.71875 173.074219 156.742188 175.597656 140.582031 185.695312 C 140.335938 183.519531 140.53125 181.191406 141.226562 179.011719 M 168.441406 84.066406 C 171.613281 71.691406 180.238281 69.960938 193.625 70.949219 C 194.914062 70.851562 196.152344 70.601562 197.242188 70.007812 C 193.824219 98.175781 211.023438 108.175781 215.4375 135.253906 C 198.382812 127.976562 187.476562 119.363281 186.632812 101.34375 C 186.4375 98.523438 186.585938 95.652344 186.585938 92.828125 C 186.585938 92.730469 186.4375 92.730469 186.386719 92.78125 C 179.496094 117.679688 198.976562 135.402344 223.863281 140.75 C 222.625 143.667969 221.632812 145.253906 220.394531 148.171875 C 219.847656 149.410156 219.300781 150.699219 218.507812 151.835938 C 218.410156 151.984375 218.113281 152.234375 218.410156 151.984375 C 218.3125 152.035156 218.261719 152.183594 218.164062 152.234375 C 216.824219 152.332031 213.253906 150.253906 212.261719 151.042969 C 199.375 148.46875 184.453125 145.746094 176.570312 134.609375 C 168.292969 118.472656 164.078125 101.789062 168.441406 84.066406 M 199.375 76.542969 C 204.828125 81.988281 216.726562 82.582031 220.988281 75.453125 C 220.738281 99.859375 219.550781 109.214844 217.371094 133.472656 C 212.460938 108.570312 199.027344 100.652344 198.085938 74.859375 C 198.480469 75.453125 198.878906 76.046875 199.375 76.542969 M 222.773438 73.820312 C 225.5 74.960938 228.027344 76.542969 230.40625 78.277344 C 232.933594 80.15625 236.652344 80.15625 237.347656 83.574219 C 238.089844 91.296875 237.792969 94.117188 237.644531 101.839844 C 235.660156 125.898438 235.214844 133.472656 259.953125 145.847656 C 260 146.144531 260.101562 146.441406 260.25 146.738281 C 257.027344 147.875 253.210938 147.429688 250.234375 149.164062 C 248.898438 147.382812 247.359375 145.5 245.082031 144.957031 C 244.136719 144.707031 243.246094 144.808594 242.304688 145.003906 C 241.757812 145.054688 241.214844 145.351562 240.765625 144.957031 C 237.394531 143.023438 233.976562 142.332031 231.398438 139.511719 C 229.464844 137.777344 230.457031 133.71875 230.058594 131.242188 C 229.167969 115.007812 230.355469 107.484375 231.398438 91.246094 C 231.449219 90.007812 231.546875 88.820312 231.347656 87.582031 C 231.347656 87.484375 231.25 87.484375 231.199219 87.582031 C 227.234375 104.066406 227.679688 112.679688 227.628906 129.5625 C 227.582031 134.410156 228.273438 137.777344 229.019531 142.53125 C 229.066406 143.171875 230.058594 143.171875 230.058594 142.53125 C 230.011719 141.242188 230.058594 141.34375 230.160156 140.054688 C 231.148438 140.796875 231.695312 140.402344 232.390625 141.390625 C 233.480469 142.777344 234.867188 143.917969 236.257812 145.003906 C 232.6875 144.410156 229.316406 142.777344 225.746094 141.984375 C 225.945312 141.441406 226.144531 140.945312 226.390625 140.402344 C 226.390625 140.402344 226.390625 140.453125 226.390625 140.453125 C 226.492188 140.152344 226.640625 141.242188 226.789062 140.996094 C 227.582031 140.453125 227.582031 138.867188 226.390625 138.621094 C 224.308594 138.222656 222.226562 137.679688 220.195312 136.984375 C 221.832031 110.75 224.65625 99.363281 221.683594 73.128906 C 221.980469 73.425781 222.375 73.625 222.773438 73.820312 M 261.636719 148.074219 C 262.679688 147.679688 262.183594 146.738281 261.835938 145.996094 C 262.082031 145.847656 262.28125 145.597656 262.378906 145.300781 C 262.480469 147.679688 263.222656 150.003906 264.613281 151.984375 C 260.449219 152.429688 256.285156 152.828125 252.167969 153.320312 C 252.121094 153.171875 252.070312 153.074219 252.019531 152.925781 C 253.558594 152.132812 251.375 150.699219 250.832031 149.90625 C 254.351562 149.113281 258.167969 149.363281 261.636719 148.074219 M 267.984375 146.144531 C 279.335938 145.699219 288.652344 152.925781 297.230469 159.3125 C 298.667969 160.152344 299.808594 161.785156 301.640625 161.6875 C 301.789062 162.480469 301.9375 163.273438 302.089844 164.0625 C 298.320312 163.964844 294.207031 163.667969 291.082031 161.339844 C 284.488281 154.609375 275.714844 148.964844 265.75 150.597656 C 264.957031 149.3125 264.414062 147.828125 264.265625 146.292969 C 265.503906 146.09375 266.792969 146.09375 267.984375 146.144531 M 270.3125 141.195312 C 271.996094 140.5 275.367188 139.460938 276.359375 141.539062 C 276.359375 141.539062 276.460938 141.835938 276.460938 141.835938 C 276.65625 142.382812 276.65625 142.925781 276.609375 143.519531 C 274.527344 143.570312 272.394531 143.421875 270.3125 143.074219 C 270.3125 142.578125 269.964844 142.085938 269.46875 141.9375 C 269.667969 141.640625 269.964844 141.390625 270.3125 141.195312 M 290.140625 163.222656 C 290.140625 163.222656 290.191406 163.171875 290.191406 163.171875 C 291.082031 163.816406 292.074219 164.3125 293.117188 164.707031 C 291.578125 164.855469 289.992188 165.054688 288.503906 164.757812 C 289.050781 164.210938 289.597656 163.667969 290.140625 163.222656 M 231.992188 160.054688 C 231.746094 160.203125 231.496094 160.300781 231.25 160.402344 C 231.199219 160.351562 231.148438 160.351562 231.101562 160.300781 C 230.355469 159.707031 229.367188 159.015625 229.414062 157.976562 C 230.355469 158.617188 231.148438 159.3125 231.992188 160.054688 M 243.59375 146.492188 C 247.0625 146.539062 248.449219 150.253906 250.53125 152.382812 C 249.441406 153.320312 251.773438 155.054688 250.382812 156.191406 C 246.816406 157.777344 242.949219 158.816406 239.28125 160.253906 C 238.289062 160.597656 237.394531 160.945312 236.40625 160.699219 C 236.40625 160.648438 236.453125 160.648438 236.453125 160.597656 C 236.15625 160.402344 235.5625 160.402344 235.5625 160.003906 C 235.015625 159.707031 234.421875 159.460938 233.976562 158.964844 C 233.925781 158.964844 233.875 159.015625 233.828125 159.015625 C 230.257812 156.09375 225.945312 152.332031 220.988281 153.125 C 222.773438 150.003906 223.914062 146.539062 225.152344 143.171875 C 229.367188 143.867188 232.984375 146.34375 237.296875 146.6875 C 239.429688 146.789062 241.609375 145.847656 243.691406 146.589844 C 243.742188 146.589844 243.640625 146.539062 243.59375 146.492188 M 218.261719 155.105469 C 219.351562 155.054688 220.144531 154.460938 220.738281 153.667969 C 223.464844 154.410156 226.09375 155.449219 228.375 157.132812 C 226.441406 158.074219 227.234375 160.253906 228.273438 161.539062 C 228.621094 165.945312 228.820312 170.351562 228.671875 174.757812 C 224.953125 174.507812 221.234375 173.914062 217.566406 173.121094 C 216.425781 167.183594 217.171875 161.09375 217.46875 155.105469 C 217.714844 155.105469 217.964844 155.105469 218.261719 155.105469 M 212.261719 173.222656 C 212.113281 169.707031 212.363281 166.191406 212.511719 162.726562 C 212.609375 159.855469 212.511719 156.785156 213.800781 154.113281 C 214.792969 154.363281 215.734375 154.660156 216.726562 154.90625 C 214.644531 159.855469 214.445312 165.449219 214.691406 170.695312 C 214.691406 175.003906 215.683594 175.449219 219.796875 175.992188 C 219.351562 178.816406 221.234375 181.289062 223.167969 183.121094 C 217.617188 181.785156 212.164062 179.757812 206.414062 179.261719 C 207.503906 179.113281 211.46875 179.011719 211.71875 177.875 C 213.207031 177.082031 212.164062 174.65625 212.261719 173.222656 M 303.722656 172.28125 C 297.726562 180.796875 296.683594 185.894531 298.519531 196.089844 C 298.71875 197.578125 299.511719 199.210938 301.097656 199.558594 C 285.976562 207.773438 270.707031 215.792969 255.886719 224.507812 C 257.917969 219.753906 259.851562 214.953125 261.785156 210.152344 C 263.667969 206.089844 265.257812 200.941406 260.792969 197.921875 C 250.878906 191.339844 239.429688 187.28125 227.878906 184.359375 C 227.480469 183.222656 226.242188 182.527344 225.398438 181.6875 C 223.617188 179.953125 221.484375 178.417969 220.394531 176.140625 C 223.464844 176.636719 226.539062 176.835938 229.664062 176.886719 C 230.257812 176.886719 230.703125 176.390625 230.703125 175.84375 C 230.753906 171.636719 230.753906 167.429688 230.457031 163.222656 C 231.945312 163.667969 233.382812 162.726562 234.621094 162.082031 C 236.453125 163.320312 238.636719 162.777344 240.519531 161.933594 C 243.34375 160.894531 246.171875 159.855469 248.996094 158.816406 C 250.683594 158.320312 252.765625 157.332031 252.566406 155.300781 C 256.085938 154.90625 259.554688 154.460938 263.074219 154.0625 C 264.859375 154.0625 267.585938 153.570312 266.199219 151.292969 C 275.21875 151.886719 283.152344 155.945312 289.199219 162.480469 C 288.308594 163.273438 287.464844 164.0625 286.523438 164.855469 C 285.480469 165.699219 284.144531 164.804688 282.953125 164.707031 C 274.625 162.925781 266.199219 161.441406 258.167969 158.519531 C 256.53125 157.777344 254.894531 156.933594 253.410156 155.945312 C 252.714844 155.5 252.070312 156.589844 252.765625 157.035156 C 257.027344 160.003906 262.082031 161.191406 266.992188 162.777344 C 270.558594 163.914062 284.886719 168.222656 287.363281 165.847656 C 290.191406 166.886719 293.265625 165.996094 296.140625 165.746094 C 298.222656 165.894531 300.402344 166.390625 302.484375 166.191406 C 302.929688 168.171875 303.328125 170.203125 303.722656 172.28125 M 251.523438 235.148438 C 251.425781 235.199219 251.328125 235.25 251.226562 235.296875 C 251.226562 235.246094 251.226562 235.246094 251.277344 235.199219 C 251.328125 235.148438 251.425781 235.148438 251.523438 235.148438 M 305.457031 202.921875 C 305.757812 204.308594 305.90625 205.644531 306.253906 207.03125 C 304.964844 206.636719 301.445312 209.40625 300.054688 210.050781 C 298.269531 211.042969 296.488281 212.03125 294.652344 213.023438 C 286.027344 217.773438 277.300781 222.378906 268.429688 226.734375 C 268.179688 225.992188 263.667969 229.355469 262.679688 229.554688 C 259.160156 231.734375 255.292969 233.21875 251.476562 234.753906 C 252.863281 232.078125 253.558594 228.8125 255.339844 226.484375 C 261.09375 223.019531 266.992188 219.804688 272.839844 216.535156 C 282.65625 211.042969 292.816406 205.992188 302.089844 199.605469 C 303.179688 199.359375 304.269531 199.457031 305.308594 199.707031 C 305.0625 200.746094 305.210938 201.882812 305.457031 202.921875 M 236.453125 300.789062 C 236.304688 300.789062 236.15625 300.839844 236.007812 300.839844 C 236.109375 300.789062 236.257812 300.789062 236.355469 300.738281 C 236.40625 300.738281 236.40625 300.789062 236.453125 300.789062 M 235.957031 298.757812 C 235.910156 298.859375 235.859375 298.90625 235.859375 299.007812 C 235.214844 298.609375 234.570312 298.265625 233.976562 297.867188 C 234.222656 297.820312 234.519531 297.769531 234.769531 297.71875 C 235.265625 297.621094 235.164062 296.730469 234.621094 296.78125 C 233.230469 297.078125 231.992188 296.929688 230.902344 295.988281 C 232.589844 296.085938 233.382812 294.058594 234.125 292.917969 C 238.339844 285.046875 242.304688 277.027344 246.914062 269.304688 C 250.878906 262.277344 254.894531 255.246094 258.859375 248.167969 C 261.738281 243.5625 263.96875 236.929688 259.257812 232.722656 C 275.367188 225.347656 291.480469 217.574219 306.5 208.269531 C 307.789062 213.765625 309.671875 219.0625 311.40625 224.40625 C 285.679688 248.464844 258.414062 271.535156 235.957031 298.757812 M 306.402344 186.140625 C 306.898438 188.617188 307.34375 191.09375 307.839844 193.566406 C 307.242188 194.902344 307.144531 196.636719 305.90625 197.578125 C 305.457031 197.824219 304.816406 197.476562 304.367188 197.378906 C 303.328125 197.03125 302.039062 197.921875 301.097656 197.28125 C 300.453125 196.585938 300.402344 195.300781 300.304688 194.457031 C 299.90625 191.734375 299.558594 188.964844 299.660156 186.242188 C 299.609375 181.585938 301.988281 177.675781 303.972656 173.617188 C 304.765625 177.777344 305.609375 181.984375 306.402344 186.140625 M 308.730469 197.378906 C 308.78125 197.429688 308.78125 197.527344 308.828125 197.578125 C 308.730469 197.625 308.632812 197.675781 308.53125 197.726562 C 308.632812 197.578125 308.679688 197.476562 308.730469 197.378906 M 314.332031 200.152344 C 314.332031 200.300781 314.382812 200.398438 314.382812 200.546875 C 314.332031 200.398438 314.28125 200.25 314.183594 200.101562 C 314.28125 200.101562 314.28125 200.152344 314.332031 200.152344 M 319.390625 201.339844 C 330.691406 204.753906 343.132812 207.179688 354.882812 205.003906 C 350.074219 218.566406 339.863281 229.160156 329.203125 238.664062 C 328.0625 236.980469 327.171875 234.457031 325.039062 233.910156 C 325.535156 233.367188 325.4375 232.277344 324.691406 231.929688 C 321.71875 221.1875 317.949219 210.597656 315.175781 199.804688 C 316.5625 200.398438 317.949219 200.894531 319.390625 201.339844 M 357.410156 148.570312 C 357.558594 148.125 358.304688 148.320312 358.152344 148.765625 C 354.832031 160.054688 351.710938 171.488281 349.332031 182.972656 C 349.429688 183.765625 348.191406 183.863281 348.636719 182.28125 C 351.164062 170.945312 353.988281 159.65625 357.410156 148.570312 Z M 49.371094 242.226562 C 48.972656 242.128906 48.625 241.929688 48.328125 241.632812 C 48.527344 241.632812 48.726562 241.632812 48.875 241.585938 C 49.121094 241.929688 49.46875 242.226562 49.816406 242.328125 C 49.667969 242.277344 49.519531 242.226562 49.371094 242.226562 M 46.839844 231.78125 C 46.542969 232.328125 46.542969 233.121094 46.445312 233.714844 C 46.394531 233.960938 46.394531 234.207031 46.394531 234.457031 C 46.246094 233.664062 46.148438 232.921875 45.949219 232.128906 C 46.246094 232.03125 46.542969 231.929688 46.839844 231.78125 Z M 152.378906 202.972656 C 168.441406 205.398438 175.085938 205.695312 179.84375 206.140625 C 169.976562 206.882812 147.621094 204.160156 147.769531 202.875 C 147.769531 202.378906 151.785156 202.875 152.378906 202.972656 Z M 152.378906 202.972656 "/>
</g>
<path style=" stroke:none;fill-rule:evenodd;fill:rgb(100%,100%,100%);fill-opacity:1;" d="M 226.847656 26.875 C 218.667969 20.242188 205.582031 18.113281 196.859375 24.796875 C 190.015625 31.035156 187.242188 48.855469 188.429688 57.816406 C 188.777344 63.558594 193.191406 70.09375 199.632812 68.261719 C 200.722656 68.160156 201.816406 67.714844 202.90625 67.667969 C 204.242188 67.519531 205.582031 67.519531 206.871094 67.714844 C 209.746094 68.113281 212.324219 69.648438 215.101562 70.339844 C 220.304688 71.675781 226.054688 70.785156 230.566406 67.816406 C 245.289062 58.113281 238.648438 36.234375 226.847656 26.875 Z M 226.847656 26.875 "/>
<g clip-path="url(#clip3)" clip-rule="nonzero">
<path style=" stroke:none;fill-rule:evenodd;fill:rgb(0%,0%,0%);fill-opacity:1;" d="M 225.757812 70.488281 C 225.90625 70.4375 226.054688 70.390625 226.203125 70.339844 C 226.203125 70.390625 226.253906 70.390625 226.253906 70.4375 C 226.253906 70.488281 226.304688 70.539062 226.304688 70.585938 C 226.15625 70.585938 225.957031 70.539062 225.757812 70.488281 M 225.460938 6.285156 C 225.410156 6.136719 225.3125 5.988281 225.261719 5.839844 C 225.460938 5.886719 225.707031 5.988281 225.859375 6.136719 C 225.707031 6.183594 225.609375 6.234375 225.460938 6.285156 M 193.191406 25.886719 C 193.191406 25.886719 193.140625 25.886719 193.191406 25.886719 C 193.289062 25.589844 193.488281 25.292969 193.683594 25.09375 C 193.734375 25.046875 193.785156 25.046875 193.785156 24.996094 C 193.585938 25.292969 193.339844 25.589844 193.191406 25.886719 M 252.28125 56.675781 C 252.179688 55.636719 252.03125 54.597656 251.832031 53.609375 C 251.683594 52.617188 251.535156 51.578125 250.992188 50.6875 C 250.496094 49.796875 250 48.953125 249.402344 48.210938 C 249.503906 47.816406 249.601562 47.46875 249.703125 47.171875 C 250.246094 45.488281 250.792969 43.3125 249.652344 41.726562 C 249.402344 41.378906 249.058594 41.082031 248.660156 40.835938 C 248.511719 40.738281 248.214844 40.636719 248.117188 40.488281 C 248.015625 40.390625 248.066406 40.441406 248.066406 40.390625 C 248.066406 40.09375 248.710938 39.5 248.859375 39.300781 C 249.15625 38.90625 249.355469 38.410156 249.503906 37.964844 C 250.148438 36.085938 249.703125 34.054688 249.304688 32.171875 C 249.105469 31.183594 248.859375 30.191406 248.808594 29.152344 C 248.761719 28.214844 248.859375 27.273438 248.957031 26.332031 C 249.058594 25.390625 249.007812 24.449219 248.609375 23.558594 C 248.414062 23.113281 248.117188 22.769531 247.769531 22.472656 C 247.421875 22.175781 246.976562 22.027344 246.628906 21.726562 C 246.28125 21.429688 246.378906 21.085938 246.480469 20.6875 C 246.578125 20.144531 246.777344 19.648438 246.777344 19.105469 C 246.828125 18.164062 246.429688 17.222656 245.785156 16.53125 C 245.140625 15.789062 244.25 15.292969 243.308594 15.195312 C 242.859375 15.144531 242.414062 15.242188 241.96875 15.195312 C 241.523438 15.144531 241.421875 14.945312 241.375 14.550781 C 241.175781 13.660156 241.273438 12.769531 240.828125 11.878906 C 240.433594 11.136719 239.738281 10.589844 238.945312 10.292969 C 237.507812 9.75 235.820312 9.847656 234.335938 10.195312 C 233.441406 7.570312 230.667969 5.839844 227.941406 5.839844 C 227.492188 5.09375 226.800781 4.550781 225.957031 4.253906 C 224.570312 3.710938 223.132812 4.054688 221.695312 4.054688 C 221.542969 4.054688 221.394531 4.054688 221.246094 4.054688 C 221.097656 4.054688 221 4.054688 220.851562 4.007812 C 219.214844 3.808594 217.628906 3.164062 216.042969 3.808594 C 215.347656 4.105469 214.753906 4.550781 214.40625 5.09375 C 213.859375 5.242188 213.316406 5.394531 212.820312 5.589844 C 210.539062 5.640625 208.257812 6.878906 207.121094 8.859375 C 205.484375 8.660156 203.75 9.007812 202.65625 10.292969 C 202.359375 10.640625 202.160156 11.035156 202.011719 11.480469 C 200.921875 11.828125 199.929688 12.472656 199.238281 13.410156 C 198.640625 14.253906 198.492188 15.390625 198.941406 16.332031 C 197.949219 17.027344 197.203125 18.066406 196.808594 19.253906 C 196.558594 19.996094 196.558594 20.738281 196.710938 21.429688 C 195.71875 21.628906 194.777344 22.074219 193.882812 22.667969 C 192.992188 23.3125 191.902344 24.351562 191.851562 25.539062 C 191.851562 25.640625 191.851562 25.738281 191.851562 25.789062 C 189.917969 25.640625 187.886719 25.984375 186.597656 27.519531 C 185.605469 28.707031 185.160156 30.191406 185.457031 31.578125 C 183.125 32.074219 180.945312 33.261719 179.410156 35.042969 C 178.316406 36.332031 177.328125 38.015625 177.375 39.796875 C 177.375 40.339844 177.523438 40.886719 177.722656 41.378906 C 177.625 41.578125 177.523438 41.726562 177.425781 41.976562 C 175.988281 42.964844 174.945312 44.550781 174.351562 46.28125 C 173.855469 47.667969 173.558594 49.5 174.105469 50.933594 C 174.203125 51.132812 174.300781 51.378906 174.402344 51.527344 C 174.300781 51.628906 174.203125 51.726562 174.105469 51.824219 C 173.113281 52.964844 172.171875 54.398438 172.21875 55.933594 C 172.269531 56.578125 172.46875 57.171875 172.863281 57.714844 C 171.527344 59.054688 170.4375 60.785156 170.535156 62.714844 C 170.632812 64.398438 171.527344 66.082031 172.964844 66.875 C 172.714844 68.160156 173.0625 69.5 174.054688 70.488281 C 174.550781 70.984375 175.144531 71.328125 175.789062 71.476562 C 175.9375 73.011719 177.277344 74.199219 178.714844 74.546875 C 178.960938 74.597656 179.257812 74.644531 179.507812 74.695312 C 180.796875 75.339844 182.332031 75.242188 183.621094 74.695312 C 184.019531 75.191406 184.515625 75.585938 185.109375 75.882812 C 185.355469 75.984375 185.605469 76.082031 185.851562 76.179688 C 187.6875 76.726562 189.621094 75.984375 191.207031 75.140625 C 191.257812 75.09375 191.355469 75.09375 191.453125 75.042969 C 191.703125 75.289062 192.097656 75.539062 192.296875 75.636719 C 193.039062 76.03125 193.882812 76.230469 194.726562 76.179688 C 195.71875 76.132812 196.558594 75.785156 197.355469 75.339844 C 197.453125 75.339844 197.601562 75.390625 197.699219 75.390625 C 198.445312 75.4375 199.089844 75.191406 199.734375 74.84375 C 200.128906 74.894531 200.527344 74.894531 200.921875 74.792969 C 201.816406 75.042969 202.707031 74.644531 203.402344 74.101562 C 203.699219 73.855469 203.996094 73.558594 204.242188 73.261719 C 204.542969 72.964844 204.738281 72.914062 205.085938 72.714844 C 205.878906 72.222656 205.980469 71.03125 205.632812 70.191406 C 205.683594 70.042969 205.730469 69.84375 205.730469 69.695312 C 205.730469 68.0625 204.988281 66.527344 204.046875 65.242188 C 203.648438 64.648438 203.152344 64.101562 202.65625 63.558594 C 202.261719 63.160156 201.714844 62.46875 201.121094 62.269531 C 201.070312 62.222656 201.070312 62.222656 201.023438 62.171875 C 201.121094 61.777344 201.21875 61.378906 201.171875 60.933594 C 201.121094 60.488281 201.023438 60.09375 200.773438 59.746094 C 201.519531 58.3125 201.816406 56.726562 201.667969 55.09375 C 202.261719 54.25 202.707031 53.3125 202.957031 52.269531 C 203.105469 51.628906 203.203125 50.933594 203.152344 50.292969 C 203.152344 49.996094 203.054688 49.597656 203.054688 49.25 C 203.054688 49.351562 203.203125 48.953125 203.253906 48.855469 C 203.847656 47.765625 204.640625 46.875 204.738281 45.589844 C 204.839844 44.847656 204.640625 43.953125 204.195312 43.359375 C 204.492188 42.222656 204.492188 40.933594 204.046875 39.847656 C 203.898438 39.550781 203.796875 39.253906 203.601562 39.003906 C 203.699219 38.757812 203.75 38.558594 203.847656 38.3125 C 203.898438 38.210938 203.898438 38.164062 203.945312 38.0625 C 204.292969 37.765625 204.589844 37.421875 204.839844 37.125 C 205.433594 36.429688 205.878906 35.636719 205.929688 34.699219 C 205.980469 34.253906 205.832031 33.808594 205.730469 33.363281 C 205.683594 33.164062 205.632812 32.914062 205.582031 32.765625 C 205.53125 32.667969 205.433594 32.570312 205.433594 32.46875 C 205.433594 32.46875 205.433594 32.421875 205.433594 32.421875 C 205.433594 32.421875 205.433594 32.371094 205.433594 32.320312 C 205.433594 31.875 205.484375 31.429688 205.484375 31.035156 C 205.878906 31.429688 206.375 31.777344 206.921875 31.925781 C 208.0625 32.273438 209.203125 32.125 210.242188 31.578125 C 211.332031 32.320312 212.523438 32.964844 213.8125 33.261719 C 214.554688 33.410156 215.296875 33.363281 216.09375 33.460938 C 216.835938 33.558594 217.578125 33.90625 218.273438 34.152344 C 219.859375 34.699219 221.394531 35.292969 222.980469 35.835938 C 224.269531 36.28125 225.609375 36.628906 226.949219 36.382812 C 227.34375 36.976562 227.789062 37.421875 228.433594 37.816406 C 228.882812 38.0625 229.378906 38.261719 229.871094 38.3125 C 230.320312 38.410156 230.863281 38.359375 231.210938 38.65625 C 231.558594 38.957031 231.804688 39.402344 232.105469 39.746094 C 232.449219 40.144531 232.898438 40.441406 233.34375 40.6875 C 233.691406 40.886719 234.085938 41.035156 234.484375 41.082031 C 234.433594 41.925781 234.433594 42.765625 234.382812 43.609375 C 234.382812 45.441406 234.382812 47.273438 234.335938 49.152344 C 234.285156 50.984375 234.234375 52.816406 234.136719 54.648438 C 234.035156 56.378906 233.9375 58.113281 233.492188 59.796875 C 232.105469 65.390625 226.996094 69.347656 221.296875 69.546875 C 219.613281 69.597656 217.925781 69.347656 216.289062 68.855469 C 214.605469 68.359375 213.117188 67.269531 211.382812 66.925781 C 210.9375 66.824219 210.488281 67.269531 210.789062 67.714844 C 211.234375 68.457031 211.777344 68.902344 212.523438 69.347656 C 213.316406 69.796875 214.160156 70.191406 215 70.488281 C 216.585938 71.03125 218.222656 71.378906 219.910156 71.476562 C 221.199219 71.527344 222.4375 71.476562 223.675781 71.230469 C 223.777344 71.476562 223.925781 71.773438 224.023438 72.023438 C 224.023438 72.070312 224.121094 72.023438 224.074219 71.972656 C 224.074219 71.921875 224.023438 71.875 224.023438 71.824219 C 224.421875 72.371094 225.0625 72.765625 225.757812 72.914062 C 226.203125 73.0625 226.699219 73.0625 227.195312 73.011719 C 227.34375 73.011719 227.492188 72.964844 227.640625 72.914062 C 228.136719 73.359375 228.78125 73.605469 229.378906 73.753906 C 229.277344 74.398438 229.574219 75.140625 230.367188 75.289062 C 230.667969 75.390625 230.964844 75.390625 231.308594 75.339844 C 231.558594 75.4375 231.804688 75.539062 232.105469 75.585938 C 232.449219 75.6875 232.898438 75.585938 233.195312 75.289062 C 233.34375 75.390625 233.492188 75.488281 233.640625 75.636719 C 234.234375 76.328125 235.425781 75.785156 235.523438 74.992188 C 235.722656 74.992188 235.871094 74.992188 236.070312 74.992188 C 236.117188 74.992188 236.167969 75.042969 236.21875 75.042969 C 237.011719 75.390625 237.855469 75.734375 238.746094 75.4375 C 238.894531 75.390625 239.042969 75.339844 239.191406 75.242188 C 239.835938 75.289062 240.433594 75.289062 241.078125 75.09375 C 241.472656 74.992188 241.820312 74.792969 242.066406 74.546875 C 243.058594 74.84375 244.050781 74.941406 245.042969 74.597656 C 245.785156 74.347656 246.332031 73.902344 246.777344 73.359375 C 247.421875 73.359375 248.066406 73.210938 248.609375 72.914062 C 249.601562 72.417969 250.296875 71.429688 250.742188 70.488281 C 251.785156 68.359375 252.429688 66.082031 252.675781 63.707031 C 252.875 61.332031 252.527344 59.003906 252.28125 56.675781 "/>
</g>
<path style=" stroke:none;fill-rule:evenodd;fill:rgb(0%,0%,0%);fill-opacity:1;" d="M 215.53125 54.832031 C 217.664062 54.585938 219.746094 55.230469 221.828125 55.574219 C 222.917969 55.722656 224.007812 55.871094 225.148438 55.921875 C 225.398438 55.921875 225.59375 55.921875 225.84375 55.921875 C 225.84375 55.722656 225.992188 55.527344 226.191406 55.425781 C 226.6875 55.230469 227.082031 55.128906 227.628906 55.128906 C 228.125 55.128906 228.621094 55.179688 229.113281 55.277344 C 230.007812 55.425781 230.898438 55.824219 231.542969 56.417969 C 233.03125 57.902344 232.832031 60.226562 231.644531 61.863281 C 229.261719 65.179688 224.902344 65.328125 221.183594 65.277344 L 220.835938 65.277344 C 217.464844 65.226562 212.605469 65.722656 211.070312 61.910156 C 210.523438 60.476562 210.574219 58.84375 211.269531 57.503906 C 212.0625 55.921875 213.796875 55.078125 215.53125 54.832031 Z M 226.140625 60.375 C 224.554688 60.425781 222.96875 60.476562 221.429688 60.523438 C 221.480469 60.921875 221.53125 61.316406 221.578125 61.714844 C 221.628906 62.011719 221.679688 62.355469 221.730469 62.652344 C 221.730469 62.800781 221.828125 63 221.777344 63.148438 L 221.777344 63.199219 C 221.878906 63.246094 221.925781 63.296875 221.976562 63.394531 C 221.976562 63.445312 222.027344 63.445312 222.027344 63.496094 C 223.214844 63.496094 224.554688 63.496094 225.792969 63.246094 L 225.792969 63.199219 C 225.792969 63.050781 225.894531 62.949219 225.992188 62.851562 C 226.089844 62.355469 226.089844 61.8125 226.089844 61.316406 C 226.089844 60.972656 226.089844 60.671875 226.140625 60.375 Z M 220.191406 60.523438 C 219.050781 60.523438 217.960938 60.574219 216.820312 60.523438 L 216.324219 60.523438 C 216.425781 61.121094 216.574219 61.664062 216.671875 62.257812 C 216.769531 62.851562 216.226562 63.246094 215.78125 63.246094 C 215.828125 63.246094 215.878906 63.246094 215.929688 63.246094 C 217.367188 63.445312 218.851562 63.394531 220.339844 63.394531 C 220.242188 62.949219 220.292969 62.40625 220.292969 62.011719 L 220.292969 61.960938 C 220.242188 61.515625 220.242188 61.019531 220.191406 60.523438 Z M 212.558594 60.425781 C 212.605469 60.722656 212.65625 61.019531 212.804688 61.316406 C 213.300781 62.457031 214.390625 63 215.53125 63.246094 C 215.332031 63.199219 215.183594 63 215.136719 62.703125 C 215.035156 62.011719 214.988281 61.269531 214.988281 60.523438 C 214.195312 60.523438 213.351562 60.476562 212.558594 60.425781 Z M 230.355469 60.179688 C 229.757812 60.328125 229.113281 60.226562 228.519531 60.277344 C 227.976562 60.277344 227.480469 60.328125 226.933594 60.328125 C 226.984375 60.671875 226.984375 61.070312 227.03125 61.417969 C 227.082031 61.863281 227.082031 62.355469 227.179688 62.851562 C 228.273438 62.503906 229.214844 61.910156 229.90625 60.972656 C 230.105469 60.722656 230.253906 60.425781 230.355469 60.179688 Z M 215.285156 56.761719 C 214.34375 57.011719 213.402344 57.457031 212.90625 58.347656 C 212.605469 58.890625 212.507812 59.484375 212.507812 60.078125 C 213.300781 59.980469 214.144531 59.929688 214.988281 59.929688 C 214.988281 59.78125 214.988281 59.632812 214.988281 59.484375 L 214.988281 59.089844 C 215.035156 58.398438 215.085938 57.457031 215.285156 56.761719 Z M 220.292969 56.8125 L 219.84375 56.761719 C 218.65625 56.613281 217.515625 56.464844 216.324219 56.566406 C 216.175781 56.566406 215.976562 56.613281 215.828125 56.613281 C 216.027344 57.355469 216.027344 58.25 216.128906 58.992188 C 216.175781 59.289062 216.226562 59.585938 216.226562 59.832031 L 216.425781 59.832031 C 217.664062 59.78125 218.953125 59.734375 220.242188 59.683594 C 220.242188 59.4375 220.242188 59.1875 220.242188 58.992188 L 220.242188 58.742188 C 220.242188 58.148438 220.191406 57.457031 220.292969 56.8125 Z M 226.191406 56.761719 C 224.949219 56.960938 223.660156 57.011719 222.472656 57.011719 C 221.976562 57.011719 221.480469 56.960938 221.035156 56.960938 C 221.085938 57.207031 221.085938 57.457031 221.085938 57.753906 C 221.132812 58.25 221.183594 58.792969 221.234375 59.289062 L 221.28125 59.734375 C 222.820312 59.683594 224.40625 59.585938 225.941406 59.484375 L 226.140625 59.484375 L 226.191406 58.644531 C 226.238281 58.050781 226.289062 57.503906 226.339844 56.910156 L 226.289062 56.910156 C 226.289062 56.8125 226.238281 56.761719 226.191406 56.761719 Z M 226.734375 56.960938 C 226.785156 57.753906 226.835938 58.59375 226.882812 59.386719 L 227.925781 59.335938 C 228.074219 59.335938 228.273438 59.335938 228.421875 59.289062 C 229.066406 59.238281 229.957031 59.039062 230.601562 59.238281 C 230.652344 58.644531 230.503906 58.050781 229.957031 57.652344 C 229.015625 56.960938 227.777344 57.207031 226.734375 56.960938 Z M 223.214844 49.734375 C 224.753906 48.84375 228.570312 47.953125 228.816406 50.722656 C 228.917969 51.960938 227.976562 53.050781 226.882812 53.496094 L 226.835938 53.496094 C 225.792969 53.941406 223.960938 54.386719 223.117188 53.496094 C 222.375 52.753906 223.363281 51.367188 224.257812 52.011719 C 224.753906 52.308594 225.742188 52.109375 226.238281 51.960938 L 226.289062 51.960938 C 226.835938 51.8125 227.628906 51.269531 227.378906 50.574219 C 227.179688 49.980469 226.289062 49.832031 225.742188 49.832031 C 224.902344 49.785156 224.109375 49.980469 223.265625 50.082031 C 223.167969 49.980469 223.117188 49.785156 223.214844 49.734375 Z M 229.5625 45.328125 C 231.644531 45.230469 232.933594 47.507812 232.4375 49.335938 C 232.335938 49.636719 231.988281 49.980469 231.644531 49.933594 L 231.542969 49.933594 C 231.496094 49.933594 231.445312 49.933594 231.394531 49.933594 C 231.046875 49.832031 230.75 49.484375 230.800781 49.140625 L 230.800781 49.039062 C 230.851562 48.148438 230.75 47.160156 229.710938 46.960938 C 228.816406 46.765625 228.320312 47.605469 228.320312 48.398438 C 228.320312 48.546875 228.171875 48.644531 228.023438 48.546875 C 227.378906 48.148438 227.28125 47.40625 227.527344 46.714844 C 227.875 45.871094 228.667969 45.378906 229.5625 45.328125 Z M 214.195312 45.824219 C 215.679688 45.328125 217.316406 46.121094 218.058594 47.457031 C 218.308594 47.507812 218.554688 47.703125 218.554688 48.050781 C 218.507812 48.496094 218.40625 48.742188 218.109375 49.089844 C 217.613281 49.585938 216.769531 49.335938 216.574219 48.695312 L 216.574219 48.644531 C 216.375 47.804688 215.433594 47.308594 214.640625 47.554688 C 213.699219 47.902344 213.699219 48.890625 213.054688 49.484375 C 212.953125 49.535156 212.855469 49.585938 212.804688 49.535156 C 212.113281 49.1875 212.210938 48.148438 212.457031 47.554688 C 212.707031 46.765625 213.351562 46.070312 214.195312 45.824219 Z M 212.113281 41.21875 C 213.351562 39.980469 216.523438 38.792969 217.367188 41.070312 C 217.515625 41.515625 217.167969 42.109375 216.722656 42.210938 C 215.976562 42.359375 215.332031 42.011719 214.589844 42.109375 C 213.996094 42.160156 213.351562 42.359375 212.90625 42.703125 C 211.566406 43.742188 211.269531 45.476562 210.375 46.765625 C 210.328125 46.8125 210.226562 46.8125 210.226562 46.714844 C 209.980469 44.832031 210.773438 42.605469 212.113281 41.21875 Z M 228.074219 40.03125 C 228.867188 39.734375 229.808594 39.785156 230.601562 40.03125 C 231.445312 40.277344 232.1875 40.773438 232.734375 41.417969 C 232.980469 41.714844 233.230469 42.011719 233.425781 42.359375 C 233.527344 42.554688 233.625 42.902344 233.773438 43.148438 C 234.417969 43.496094 234.667969 44.339844 234.121094 44.933594 L 234.023438 45.03125 C 233.726562 45.328125 233.230469 45.476562 232.832031 45.328125 C 231.890625 45.082031 231.792969 44.339844 231.445312 43.546875 C 231.246094 43.050781 230.851562 42.554688 230.402344 42.257812 C 229.363281 41.46875 227.628906 41.21875 226.339844 41.566406 C 226.289062 41.566406 226.191406 41.515625 226.238281 41.417969 C 226.488281 41.121094 226.636719 40.871094 226.933594 40.625 C 227.332031 40.328125 227.675781 40.179688 228.074219 40.03125 Z M 228.074219 40.03125 "/>
</g>
</svg>
